<svg xmlns="http://www.w3.org/2000/svg" viewBox="0 0 100 100">
  <defs>
    <linearGradient id="notepadGradient" x1="0%" y1="0%" x2="100%" y2="100%">
      <stop offset="0%" stop-color="#6366F1" />
      <stop offset="100%" stop-color="#3B82F6" />
    </linearGradient>
    <linearGradient id="pageGradient" x1="0%" y1="0%" x2="100%" y2="100%">
      <stop offset="0%" stop-color="#FFFFFF" />
      <stop offset="100%" stop-color="#F3F4F6" />
    </linearGradient>
    <filter id="shadow" x="-20%" y="-20%" width="140%" height="140%">
      <feDropShadow dx="2" dy="2" stdDeviation="2" flood-opacity="0.3" />
    </filter>
  </defs>
  
  <!-- Notepad base -->
  <rect x="15" y="10" width="70" height="85" rx="5" fill="url(#notepadGradient)" filter="url(#shadow)" />
  
  <!-- Paper pages -->
  <rect x="20" y="15" width="60" height="75" rx="2" fill="url(#pageGradient)" />
  
  <!-- Binding rings -->
  <circle cx="30" cy="25" r="3" fill="#FFFFFF" stroke="#4F46E5" stroke-width="1" />
  <circle cx="30" cy="40" r="3" fill="#FFFFFF" stroke="#4F46E5" stroke-width="1" />
  <circle cx="30" cy="55" r="3" fill="#FFFFFF" stroke="#4F46E5" stroke-width="1" />
  <circle cx="30" cy="70" r="3" fill="#FFFFFF" stroke="#4F46E5" stroke-width="1" />
  
  <!-- Notepad lines -->
  <line x1="40" y1="30" x2="70" y2="30" stroke="#CBD5E1" stroke-width="1" />
  <line x1="40" y1="40" x2="70" y2="40" stroke="#CBD5E1" stroke-width="1" />
  <line x1="40" y1="50" x2="70" y2="50" stroke="#CBD5E1" stroke-width="1" />
  <line x1="40" y1="60" x2="70" y2="60" stroke="#CBD5E1" stroke-width="1" />
  <line x1="40" y1="70" x2="70" y2="70" stroke="#CBD5E1" stroke-width="1" />
  
  <!-- Check mark -->
  <path d="M45 55 L55 65 L70 45" stroke="#4F46E5" stroke-width="4" fill="none" stroke-linecap="round" stroke-linejoin="round" />
  
  <!-- Pencil -->
  <path d="M75 20 L80 15 L85 20 L80 25 Z" fill="#FFA500" />
  <path d="M75 20 L55 40" stroke="#FFA500" stroke-width="1" />
  <path d="M80 15 L85 20" stroke="#333333" stroke-width="0.5" />
</svg>
